#!OML:ASF I:\Actors\actors\Patient Classification 2\Patient 1\Session 1\actor1.ASF
:FULLY-SPECIFIED
:DEGREES
332
root -0.777833 18.6984 5.57776 -0.129503 -4.33939 -1.06377
lowerback 9.29186 -3.0413 7.26786
upperback -2.57113 -2.73093 5.75111
thorax -8.04977 -1.52434 2.49253
lowerneck -15.9699 -2.21757 -2.37074
upperneck 12.8142 -1.59791 -5.43265
head 6.51061 -1.36865 -1.528
rclavicle -4.25384e-014 1.27222e-014
rhumerus -39.2227 27.0434 -71.776
rradius 115.33
rwrist 1.37693
rhand -9.98585 -34.1042
rfingers 7.12502
rthumb 15.9973 -63.4637
lclavicle -4.25384e-014 1.27222e-014
lhumerus 45.2945 -30.2788 36.8597
lradius 88.5282
lwrist -23.6643
lhand -14.6583 -31.3396
lfingers 7.12502
lthumb 11.4943 -1.67478
rfemur 0 0 0
rtibia 0
rfoot 0 0
rtoes 0
lfemur -2.1457 -0.844904 -12.4199
ltibia 19.827
lfoot -20.1929 11.0246
ltoes -55.7541
333
root -0.771021 18.6996 5.5784 -0.0739962 -4.50578 -1.10289
lowerback 9.38739 -2.98456 7.63647
upperback -2.63028 -2.58223 5.88011
thorax -8.18241 -1.46817 2.41355
lowerneck -16.0147 -2.15932 -2.23118
upperneck 12.7225 -1.48511 -5.86885
head 6.48756 -1.344 -1.67925
rclavicle 1.33279e-014 1.59028e-015
rhumerus -39.1886 27.0732 -71.5912
rradius 115.298
rwrist 1.24644
rhand -9.96205 -33.8447
rfingers 7.12502
rthumb 16.0202 -63.2023
lclavicle 1.33279e-014 1.59028e-015
lhumerus 48.2485 -30.9326 32.3805
lradius 89.4274
lwrist -23.0608
lhand -11.2577 -30.1504
lfingers 7.12502
lthumb 14.7722 -0.696863
rfemur 0 0 0
rtibia 0
rfoot 0 0
rtoes 0
lfemur -2.18237 -0.624999 -12.3773
ltibia 19.8458
lfoot -20.1513 11.0168
ltoes -55.9152
334
root -0.763802 18.6998 5.57782 -0.0464295 -4.76971 -1.17704
lowerback 9.48304 -2.93755 8.02728
upperback -2.60844 -2.44556 6.0704
thorax -8.22501 -1.41553 2.38514
lowerneck -16.0785 -2.06708 -2.15817
upperneck 12.5278 -1.30399 -6.38653
head 6.43785 -1.29436 -1.83798
rclavicle -1.69976e-015 4.45278e-014
rhumerus -39.0245 27.247 -71.3607
rradius 115.322
rwrist 1.32927
rhand -9.64924 -33.5929
rfingers 7.12502
rthumb 16.3214 -62.926
lclavicle -1.69976e-015 4.45278e-014
lhumerus 49.9279 -30.6014 29.8771
lradius 90.3863
lwrist -22.3418
lhand -9.98862 -30.6097
lfingers 7.12502
lthumb 15.9946 -1.25
rfemur 0 0 0
rtibia 0
rfoot 0 0
rtoes 0
lfemur -2.14163 -0.466322 -12.3211
ltibia 19.8272
lfoot -20.1956 11.0982
ltoes -55.9521
335
root -0.755432 18.6985 5.57891 -0.063741 -5.16094 -1.1524
lowerback 9.58384 -2.93533 8.38966
upperback -2.5111 -2.37858 6.25883
thorax -8.18769 -1.39324 2.3781
lowerneck -16.3243 -1.90714 -2.12788
upperneck 12.4339 -1.00209 -6.94233
head 6.45663 -1.19748 -1.99461
rclavicle -6.73632e-014 7.95139e-014
rhumerus -38.6672 27.7063 -71.1528
rradius 115.369
rwrist 1.25912
rhand -9.74473 -33.7226
rfingers 7.12502
rthumb 16.2295 -63.0633
lclavicle -6.73632e-014 7.95139e-014
lhumerus 50.318 -29.558 29.2824
lradius 91.0211
lwrist -22.8798
lhand -10.0733 -28.838
lfingers 7.12502
lthumb 15.9131 0.528228
rfemur 0 0 0
rtibia 0
rfoot 0 0
rtoes 0
lfemur -2.00399 -0.359815 -12.401
ltibia 19.7774
lfoot -20.3253 11.2692
ltoes -55.7776
336
root -0.747084 18.6989 5.58012 -0.036697 -5.64348 -0.969469
lowerback 9.62988 -2.91051 8.75469
upperback -2.41853 -2.29775 6.31493
thorax -8.12774 -1.36757 2.22161
lowerneck -16.6932 -1.74552 -2.13025
upperneck 12.5274 -0.705381 -7.28091
head 6.55839 -1.09392 -2.08104
rclavicle -4.31611e-014 0
rhumerus -38.9879 28.0368 -71.531
rradius 115.865
rwrist 1.55128
rhand -9.77799 -33.6612
rfingers 7.12502
rthumb 16.1974 -63.0045
lclavicle -4.31611e-014 0
lhumerus 49.7876 -27.8885 30.5397
lradius 91.3781
lwrist -22.9018
lhand -9.01141 -27.5359
lfingers 7.12502
lthumb 16.9355 1.74577
rfemur 0 0 0
rtibia 0
rfoot 0 0
rtoes 0
lfemur -1.89396 -0.0936956 -12.6398
ltibia 19.6944
lfoot -20.4169 11.4247
ltoes -55.6481
337
root -0.741503 18.7011 5.5792 0.0538857 -6.18958 -0.804901
lowerback 9.64577 -2.82961 9.19909
upperback -2.3696 -2.13955 6.26797
thorax -8.10159 -1.312 1.89838
lowerneck -16.8442 -1.61341 -1.99446
upperneck 12.5501 -0.514403 -7.50295
head 6.59664 -1.01846 -2.15805
rclavicle -1.22501e-014 2.22639e-014
rhumerus -37.7963 28.4521 -70.8923
rradius 115.441
rwrist 0.916351
rhand -9.52737 -33.4016
rfingers 7.12502
rthumb 16.4387 -62.7251
lclavicle -1.22501e-014 2.22639e-014
lhumerus 48.9263 -25.8873 32.6587
lradius 90.9298
lwrist -24.9249
lhand -10.9238 -26.0033
lfingers 7.12502
lthumb 15.0939 3.42636
rfemur 0 0 0
rtibia 0
rfoot 0 0
rtoes 0
lfemur -1.82985 0.390935 -12.8195
ltibia 19.5631
lfoot -20.4243 11.515
ltoes -55.6065
338
root -0.736464 18.7036 5.57873 0.156619 -6.74365 -0.649633
lowerback 9.52003 -2.83261 9.54972
upperback -2.25025 -2.12518 6.34669
thorax -7.91187 -1.31368 1.77442
lowerneck -16.9412 -1.40961 -2.00619
upperneck 12.4271 -0.19987 -7.75076
head 6.58501 -0.887896 -2.20352
rclavicle 2.66371e-014 -2.22639e-014
rhumerus -37.9656 29.0422 -71.1274
rradius 115.941
rwrist 1.36312
rhand -9.65347 -33.1692
rfingers 7.12502
rthumb 16.3173 -62.5027
lclavicle 2.66371e-014 -2.22639e-014
lhumerus 47.6797 -23.2643 35.4666
lradius 90.599
lwrist -25.2743
lhand -9.91873 -25.1335
lfingers 7.12502
lthumb 16.0619 4.22082
rfemur 0 0 0
rtibia 0
rfoot 0 0
rtoes 0
lfemur -1.76679 0.946791 -12.9825
ltibia 19.4037
lfoot -20.3562 11.5479
ltoes -55.5879
339
root -0.729501 18.7053 5.58031 0.232539 -7.24973 -0.410042
lowerback 9.10906 -2.88796 9.6749
upperback -1.9579 -2.26647 6.5131
thorax -7.36168 -1.36741 1.86582
lowerneck -17.0492 -1.15819 -2.05224
upperneck 12.1324 0.184118 -8.0599
head 6.52389 -0.725441 -2.25357
rclavicle 1.42131e-014 8.90555e-014
rhumerus -36.2852 29.9642 -70.1274
rradius 115.57
rwrist 1.0073
rhand -9.82397 -33.4113
rfingers 7.12502
rthumb 16.1532 -62.7582
lclavicle 1.42131e-014 8.90555e-014
lhumerus 46.5566 -20.1373 38.2974
lradius 90.4166
lwrist -23.8291
lhand -6.133 -20.7824
lfingers 7.12502
lthumb 19.7045 8.23891
rfemur 0 0 0
rtibia 0
rfoot 0 0
rtoes 0
lfemur -1.68394 1.48655 -13.2493
ltibia 19.2376
lfoot -20.28 11.5449
ltoes -55.6023
340
root -0.722691 18.7059 5.5828 0.2614 -7.68054 -0.177734
lowerback 9.69759 -2.97519 9.99724
upperback -2.37674 -2.20476 6.54079
thorax -8.17351 -1.37603 1.77389
lowerneck -16.6752 -0.955651 -2.06619
upperneck 12.352 0.500741 -8.32238
head 6.54516 -0.596847 -2.30227
rclavicle -6.80837e-015 0
rhumerus -35.9893 30.9768 -69.6951
rradius 115.361
rwrist 0.632371
rhand -9.77585 -33.6527
rfingers 7.12502
rthumb 16.1995 -62.9959
lclavicle -6.80837e-015 0
lhumerus 45.1672 -18.0835 40.7974
lradius 89.3104
lwrist -24.6708
lhand -5.84025 -18.6378
lfingers 7.12502
lthumb 19.9859 10.3544
rfemur 0 0 0
rtibia 0
rfoot 0 0
rtoes 0
lfemur -1.56508 1.92224 -13.5105
ltibia 19.0688
lfoot -20.2615 11.5788
ltoes -55.6236
341
root -0.717573 18.7067 5.58559 0.269557 -8.00611 0.0297523
lowerback 9.95779 -3.00548 10.2004
upperback -2.56637 -2.15349 6.58668
thorax -8.54052 -1.37136 1.73348
lowerneck -16.4768 -0.864157 -2.1607
upperneck 12.438 0.655873 -8.4029
head 6.54604 -0.53295 -2.29599
rclavicle 2.68359e-014 -3.18055e-015
rhumerus -35.8023 31.6284 -69.3529
rradius 115.351
rwrist 0.577206
rhand -9.70522 -33.6827
rfingers 7.12502
rthumb 16.2675 -63.0203
lclavicle 2.68359e-014 -3.18055e-015
lhumerus 44.5004 -16.3703 42.5285
lradius 88.0664
lwrist -25.174
lhand -5.68231 -16.9525
lfingers 7.12502
lthumb 20.1377 12.0238
rfemur 0 0 0
rtibia 0
rfoot 0 0
rtoes 0
lfemur -1.46075 2.21491 -13.7448
ltibia 18.9323
lfoot -20.2517 11.6691
ltoes -55.6478
342
root -0.714909 18.7084 5.58835 0.286581 -8.19551 0.177324
lowerback 10.0098 -3.01672 10.3962
upperback -2.65143 -2.12359 6.59866
thorax -8.67314 -1.37106 1.64408
lowerneck -16.4605 -0.848114 -2.31294
upperneck 12.5792 0.692164 -8.20341
head 6.58842 -0.510293 -2.20456
rclavicle 5.61567e-014 -6.36111e-015
rhumerus -35.6151 32.0031 -69.0836
rradius 115.303
rwrist 0.654746
rhand -9.80001 -33.6737
rfingers 7.12502
rthumb 16.1762 -63.0188
lclavicle 5.61567e-014 -6.36111e-015
lhumerus 44.4294 -15.3234 43.1568
lradius 86.8705
lwrist -25.7789
lhand -4.7721 -16.9278
lfingers 7.12502
lthumb 21.0124 11.9539
rfemur 0 0 0
rtibia 0
rfoot 0 0
rtoes 0
lfemur -1.41524 2.44399 -13.8943
ltibia 18.8569
lfoot -20.2143 11.6322
ltoes -55.5912
343
root -0.71523 18.7099 5.59293 0.317194 -8.20071 0.153777
lowerback 9.94582 -3.04592 10.7455
upperback -2.72203 -2.11932 6.57462
thorax -8.73283 -1.39025 1.42914
lowerneck -16.4816 -0.849929 -2.29188
upperneck 12.7689 0.667074 -7.99084
head 6.65 -0.509513 -2.14434
rclavicle 2.01269e-014 7.95139e-014
rhumerus -35.5346 32.1797 -68.7962
rradius 115.279
rwrist 0.598434
rhand -9.89137 -33.5861
rfingers 7.12502
rthumb 16.0883 -62.9383
lclavicle 2.01269e-014 7.95139e-014
lhumerus 44.8018 -15.5108 42.2761
lradius 86.2957
lwrist -25.5849
lhand -4.04052 -16.3193
lfingers 7.12502
lthumb 21.7151 12.4827
rfemur 0 0 0
rtibia 0
rfoot 0 0
rtoes 0
lfemur -1.4217 2.63088 -13.8268
ltibia 18.8414
lfoot -20.1274 11.4079
ltoes -55.5471
344
root -0.716533 18.7106 5.60066 0.338443 -7.95521 0.102065
lowerback 9.76615 -3.09157 11.0411
upperback -2.76375 -2.16415 6.58208
thorax -8.69247 -1.4264 1.27756
lowerneck -16.5778 -0.894474 -2.34032
upperneck 12.9456 0.604853 -7.79295
head 6.71956 -0.532294 -2.0821
rclavicle -2.08227e-014 -2.8625e-014
rhumerus -35.3307 32.108 -68.1475
rradius 115.546
rwrist -0.731982
rhand -9.35461 -35.1595
rfingers 7.12502
rthumb 16.6051 -64.4691
lclavicle -2.08227e-014 -2.8625e-014
lhumerus 45.4678 -16.6672 40.4403
lradius 86.3795
lwrist -24.8037
lhand -3.63371 -16.3773
lfingers 7.12502
lthumb 22.1057 12.379
rfemur 0 0 0
rtibia 0
rfoot 0 0
rtoes 0
lfemur -1.49403 2.6693 -13.7284
ltibia 18.8979
lfoot -20.0091 11.1268
ltoes -55.5799
345
root -0.715202 18.7111 5.60602 0.373765 -7.6832 0.104796
lowerback 9.62005 -3.06433 11.096
upperback -2.79883 -2.1325 6.68682
thorax -8.64343 -1.41029 1.34882
lowerneck -16.7746 -0.992138 -2.5944
upperneck 13.1438 0.528828 -7.61252
head 6.81429 -0.576676 -1.99516
rclavicle 4.60932e-014 9.54166e-015
rhumerus -35.1418 32.0716 -67.2274
rradius 115.589
rwrist -0.916816
rhand -9.35164 -35.174
rfingers 7.12502
rthumb 16.6079 -64.4834
lclavicle 4.60932e-014 9.54166e-015
lhumerus 46.3757 -18.4772 38.0994
lradius 86.9903
lwrist -23.8896
lhand -3.64473 -16.8493
lfingers 7.12502
lthumb 22.0951 11.9083
rfemur 0 0 0
rtibia 0
rfoot 0 0
rtoes 0
lfemur -1.64765 2.51959 -13.7443
ltibia 19.0212
lfoot -20.0157 11.0073
ltoes -55.52
346
root -0.711307 18.7101 5.6071 0.39157 -7.50823 0.00980291
lowerback 9.58656 -2.96561 11.0305
upperback -2.81602 -1.99383 6.94336
thorax -8.62299 -1.33241 1.63614
lowerneck -16.9993 -1.10819 -2.96593
upperneck 13.3353 0.472092 -7.5166
head 6.91415 -0.626207 -1.91516
rclavicle -2.3233e-014 -4.45278e-014
rhumerus -34.9301 32.1834 -66.1721
rradius 115.364
rwrist 0.0327852
rhand -9.74052 -33.9799
rfingers 7.12502
rthumb 16.2335 -63.3203
lclavicle -2.3233e-014 -4.45278e-014
lhumerus 47.3969 -20.3719 35.8162
lradius 87.7662
lwrist -23.2477
lhand -3.56137 -18.2931
lfingers 7.12502
lthumb 22.1751 10.455
rfemur 0 0 0
rtibia 0
rfoot 0 0
rtoes 0
lfemur -1.77485 2.27747 -13.7044
ltibia 19.1528
lfoot -20.0886 11.1183
ltoes -55.5547
347
root -0.709509 18.7065 5.60832 0.28512 -7.10624 -0.160241
lowerback 9.58039 -2.90379 11.0486
upperback -2.76111 -1.89937 7.163
thorax -8.54786 -1.2777 1.84346
lowerneck -17.2286 -1.27239 -3.17536
upperneck 13.3967 0.319793 -7.52429
head 6.97048 -0.718046 -1.90412
rclavicle 3.37188e-014 -1.59028e-014
rhumerus -34.5123 31.8987 -65.0764
rradius 115.173
rwrist -0.183926
rhand -9.47051 -33.9462
rfingers 7.12502
rthumb 16.4935 -63.2651
lclavicle 3.37188e-014 -1.59028e-014
lhumerus 48.6904 -22.0859 33.6025
lradius 88.4087
lwrist -23.2993
lhand -4.35112 -19.2545
lfingers 7.12502
lthumb 21.4168 9.58176
rfemur 0 0 0
rtibia 0
rfoot 0 0
rtoes 0
lfemur -1.79687 2.00182 -13.5485
ltibia 19.2752
lfoot -20.0208 11.1348
ltoes -55.8094
